# xmcd CD database file
#
# Track frame offsets:
#	150
#	11512
#	23821
#	34157
#	55599
#	68865
#	78645
#	94119
#	106358
#	119775
#	131518
#	145080
#
# Disc length: 2082 seconds
#
# Revision: 1
# Processed by: cddbd v1.5.2PL0 Copyright (c) Steve Scherf et al.
# Submitted via: CDex 1.51
#
DISCID=a008200c
DTITLE=JD McPherson - Signs and Signifiers
DYEAR=2012
DGENRE=Americana
TTITLE0=North Side Gal
TTITLE1=Country Boy
TTITLE2=Fire Bug
TTITLE3=Signs and Signifiers
TTITLE4=Wolf Teeth
TTITLE5=Scratching Circles
TTITLE6=A Gentle Awakening
TTITLE7=Dimes For Nickels
TTITLE8=B.G.M.O.S.R.N.R.
TTITLE9=I Can't Complain
TTITLE10=Your Love (All I'm Missing)
TTITLE11=Scandalous
EXTD=YEAR: 2012
EXTT0=
EXTT1=
EXTT2=
EXTT3=
EXTT4=
EXTT5=
EXTT6=
EXTT7=
EXTT8=
EXTT9=
EXTT10=
EXTT11=
PLAYORDER=
